<svg width="106" height="74" viewBox="0 0 106 74" fill="none" xmlns="http://www.w3.org/2000/svg">
<path d="M35.6543 11.7754H25.6787V20.4766H37.1484V22H23.877V0.671875H37.0752V2.20996H25.6787V10.252H35.6543V11.7754ZM50.5518 22C50.376 21.502 50.2637 20.7646 50.2148 19.7881C49.5996 20.5889 48.8135 21.209 47.8564 21.6484C46.9092 22.0781 45.9033 22.293 44.8389 22.293C43.3154 22.293 42.0801 21.8682 41.1328 21.0186C40.1953 20.1689 39.7266 19.0947 39.7266 17.7959C39.7266 16.2529 40.3662 15.0322 41.6455 14.1338C42.9346 13.2354 44.7266 12.7861 47.0215 12.7861H50.2002V10.9844C50.2002 9.85156 49.8486 8.96289 49.1455 8.31836C48.4521 7.66406 47.4365 7.33691 46.0986 7.33691C44.8779 7.33691 43.8672 7.64941 43.0664 8.27441C42.2656 8.89941 41.8652 9.65137 41.8652 10.5303L40.1074 10.5156C40.1074 9.25586 40.6934 8.16699 41.8652 7.24902C43.0371 6.32129 44.4775 5.85742 46.1865 5.85742C47.9541 5.85742 49.3457 6.30176 50.3613 7.19043C51.3867 8.06934 51.9141 9.2998 51.9434 10.8818V18.3818C51.9434 19.915 52.1045 21.0625 52.4268 21.8242V22H50.5518ZM45.0439 20.7402C46.2158 20.7402 47.2607 20.457 48.1787 19.8906C49.1064 19.3242 49.7803 18.5674 50.2002 17.6201V14.1338H47.0654C45.3174 14.1533 43.9502 14.4756 42.9639 15.1006C41.9775 15.7158 41.4844 16.5654 41.4844 17.6494C41.4844 18.5381 41.8115 19.2754 42.4658 19.8613C43.1299 20.4473 43.9893 20.7402 45.0439 20.7402ZM66.123 17.9717C66.123 17.1025 65.7715 16.4043 65.0684 15.877C64.375 15.3496 63.3252 14.9395 61.9189 14.6465C60.5127 14.3438 59.4189 14.002 58.6377 13.6211C57.8662 13.2305 57.29 12.7568 56.9092 12.2002C56.5381 11.6436 56.3525 10.9697 56.3525 10.1787C56.3525 8.92871 56.875 7.89844 57.9199 7.08789C58.9648 6.26758 60.3027 5.85742 61.9336 5.85742C63.7012 5.85742 65.1172 6.29688 66.1816 7.17578C67.2559 8.04492 67.793 9.18262 67.793 10.5889H66.0352C66.0352 9.66113 65.6445 8.88965 64.8633 8.27441C64.0918 7.65918 63.1152 7.35156 61.9336 7.35156C60.7812 7.35156 59.8535 7.61035 59.1504 8.12793C58.457 8.63574 58.1104 9.2998 58.1104 10.1201C58.1104 10.9111 58.3984 11.5264 58.9746 11.9658C59.5605 12.3955 60.6201 12.791 62.1533 13.1523C63.6963 13.5137 64.8486 13.8994 65.6104 14.3096C66.3818 14.7197 66.9531 15.2129 67.3242 15.7891C67.6953 16.3652 67.8809 17.0635 67.8809 17.8838C67.8809 19.2217 67.3389 20.291 66.2549 21.0918C65.1807 21.8926 63.7744 22.293 62.0361 22.293C60.1904 22.293 58.6914 21.8486 57.5391 20.96C56.3965 20.0615 55.8252 18.9287 55.8252 17.5615H57.583C57.6514 18.5869 58.0811 19.3877 58.8721 19.9639C59.6729 20.5303 60.7275 20.8135 62.0361 20.8135C63.2568 20.8135 64.2432 20.5449 64.9951 20.0078C65.7471 19.4707 66.123 18.792 66.123 17.9717ZM76.8604 19.4805L81.4893 6.15039H83.3789L76.6113 24.6953L76.2598 25.5156C75.3906 27.4395 74.0479 28.4014 72.2314 28.4014C71.8115 28.4014 71.3623 28.333 70.8838 28.1963L70.8691 26.7461L71.7773 26.834C72.6367 26.834 73.3301 26.6191 73.8574 26.1895C74.3945 25.7695 74.8486 25.042 75.2197 24.0068L75.9961 21.8682L70.0195 6.15039H71.9385L76.8604 19.4805Z" fill="#848484"/>
<path d="M26.9238 54.9238H10.752V65.0898H29.8535V73H0.46875V30.3438H29.9121V38.2832H10.752V47.2773H26.9238V54.9238ZM68.5547 58.5566C68.418 61.5254 67.6172 64.1523 66.1523 66.4375C64.6875 68.7031 62.627 70.4609 59.9707 71.7109C57.334 72.9609 54.3164 73.5859 50.918 73.5859C45.3125 73.5859 40.8984 71.7598 37.6758 68.1074C34.4531 64.4551 32.8418 59.2988 32.8418 52.6387V50.5293C32.8418 46.3496 33.5645 42.6973 35.0098 39.5723C36.4746 36.4277 38.5742 34.0059 41.3086 32.3066C44.043 30.5879 47.207 29.7285 50.8008 29.7285C55.9766 29.7285 60.1367 31.0957 63.2812 33.8301C66.4258 36.5449 68.2129 40.2949 68.6426 45.0801H58.3887C58.3105 42.4824 57.6562 40.6172 56.4258 39.4844C55.1953 38.3516 53.3203 37.7852 50.8008 37.7852C48.2422 37.7852 46.3672 38.7422 45.1758 40.6562C43.9844 42.5703 43.3594 45.627 43.3008 49.8262V52.8438C43.3008 57.3945 43.8672 60.6465 45 62.5996C46.1523 64.5527 48.125 65.5293 50.918 65.5293C53.2812 65.5293 55.0879 64.9727 56.3379 63.8594C57.5879 62.7461 58.252 60.9785 58.3301 58.5566H68.5547ZM95.4199 61.6621C95.4199 60.1582 94.8828 58.9863 93.8086 58.1465C92.7539 57.3066 90.8887 56.4375 88.2129 55.5391C85.5371 54.6406 83.3496 53.7715 81.6504 52.9316C76.123 50.2168 73.3594 46.4863 73.3594 41.7402C73.3594 39.377 74.043 37.2969 75.4102 35.5C76.7969 33.6836 78.75 32.2773 81.2695 31.2812C83.7891 30.2656 86.6211 29.7578 89.7656 29.7578C92.832 29.7578 95.5762 30.3047 97.998 31.3984C100.439 32.4922 102.334 34.0547 103.682 36.0859C105.029 38.0977 105.703 40.4023 105.703 43H95.4492C95.4492 41.2617 94.9121 39.9141 93.8379 38.957C92.7832 38 91.3477 37.5215 89.5312 37.5215C87.6953 37.5215 86.2402 37.9316 85.166 38.752C84.1113 39.5527 83.584 40.5781 83.584 41.8281C83.584 42.9219 84.1699 43.918 85.3418 44.8164C86.5137 45.6953 88.5742 46.6133 91.5234 47.5703C94.4727 48.5078 96.8945 49.5234 98.7891 50.6172C103.398 53.2734 105.703 56.9355 105.703 61.6035C105.703 65.334 104.297 68.2637 101.484 70.3926C98.6719 72.5215 94.8145 73.5859 89.9121 73.5859C86.4551 73.5859 83.3203 72.9707 80.5078 71.7402C77.7148 70.4902 75.6055 68.791 74.1797 66.6426C72.7734 64.4746 72.0703 61.9844 72.0703 59.1719H82.3828C82.3828 61.457 82.9688 63.1465 84.1406 64.2402C85.332 65.3145 87.2559 65.8516 89.9121 65.8516C91.6113 65.8516 92.9492 65.4902 93.9258 64.7676C94.9219 64.0254 95.4199 62.9902 95.4199 61.6621Z" fill="url(#paint0_linear)"/>
<defs>
<linearGradient id="paint0_linear" x1="52.5" y1="-1" x2="52.5" y2="79" gradientUnits="userSpaceOnUse">
<stop stop-color="#74FFEE"/>
<stop offset="1" stop-color="#FFBD5A"/>
</linearGradient>
</defs>
</svg>
